<svg width="345" height="65" viewBox="0 0 345 65" fill="none" xmlns="http://www.w3.org/2000/svg">
<path d="M132.512 32.6349C132.512 49.3569 118.881 62.9322 102.092 62.9322C85.3022 62.9322 71.6719 49.3569 71.6719 32.6349C71.6719 15.9129 85.3022 2.33749 102.092 2.33749C118.881 2.33749 132.512 15.9129 132.512 32.6349Z" fill="#F37366"/>
<path d="M102.092 63.0221C93.9678 63.0221 86.2951 59.8755 80.5181 54.1217C68.6028 42.2545 68.6028 23.0152 80.5181 11.148C92.4333 -0.719216 111.75 -0.719216 123.666 11.148L108.952 25.8022C105.161 22.0263 99.0228 22.0263 95.2316 25.8022C91.4403 29.5782 91.4403 35.6916 95.2316 39.4675C97.0369 41.2656 99.4741 42.3444 102.092 42.3444C104.71 42.3444 107.147 41.3555 108.952 39.4675L123.666 54.1217C117.889 59.8755 110.216 63.0221 102.092 63.0221Z" fill="black"/>
<path d="M229.819 11.0581H231.896V19.8686H235.235V21.4869H229.819V11.0581Z" fill="black"/>
<path d="M240.381 19.7787C241.013 19.7787 241.464 19.5989 241.915 19.1494C242.367 18.6999 242.547 18.0705 242.547 17.3513C242.547 16.5422 242.367 15.9129 241.915 15.5532C241.464 15.1037 241.013 14.9239 240.381 14.9239C239.749 14.9239 239.297 15.1037 238.846 15.5532C238.395 16.0028 238.214 16.6321 238.214 17.3513C238.214 18.0705 238.395 18.7898 238.846 19.1494C239.297 19.5989 239.749 19.7787 240.381 19.7787ZM237.312 20.408C236.499 19.5989 236.138 18.6099 236.138 17.3513C236.138 16.0927 236.589 15.0138 237.402 14.2946C238.214 13.4855 239.207 13.1259 240.471 13.1259C241.644 13.1259 242.728 13.4855 243.54 14.2946C244.352 15.1037 244.804 16.0927 244.804 17.3513C244.804 18.6099 244.352 19.6888 243.54 20.408C242.728 21.2171 241.735 21.5768 240.471 21.5768C239.117 21.5768 238.124 21.2171 237.312 20.408Z" fill="black"/>
<path d="M251.664 19.1494C252.115 18.6999 252.296 18.1604 252.296 17.3513C252.296 16.6321 252.115 16.0028 251.664 15.5533C251.213 15.1037 250.671 14.9239 250.13 14.9239C249.498 14.9239 249.046 15.1037 248.595 15.5533C248.144 16.0028 247.963 16.5422 247.963 17.3513C247.963 18.0705 248.144 18.6999 248.595 19.1494C249.046 19.5989 249.588 19.7787 250.13 19.7787C250.671 19.7787 251.213 19.509 251.664 19.1494ZM246.88 20.408C246.158 19.5989 245.797 18.61 245.797 17.3513C245.797 16.0927 246.158 15.1037 246.88 14.2946C247.602 13.4855 248.595 13.1259 249.678 13.1259C250.852 13.1259 251.664 13.5754 252.296 14.5643V10.5187H254.372V21.5768H252.296V20.2282C251.664 21.2172 250.761 21.7566 249.678 21.7566C248.595 21.7566 247.602 21.2172 246.88 20.408Z" fill="black"/>
<path d="M261.864 19.1494C262.316 18.6999 262.496 18.1604 262.496 17.3513C262.496 16.6321 262.316 16.0028 261.864 15.5532C261.413 15.1037 260.871 14.9239 260.33 14.9239C259.698 14.9239 259.246 15.1037 258.795 15.5532C258.344 16.0028 258.163 16.5422 258.163 17.3513C258.163 18.0705 258.344 18.6999 258.795 19.1494C259.246 19.5989 259.788 19.7787 260.33 19.7787C260.871 19.7787 261.503 19.509 261.864 19.1494ZM257.17 20.408C256.448 19.5989 256.087 18.6099 256.087 17.3513C256.087 16.0927 256.448 15.1037 257.17 14.2946C257.892 13.4855 258.885 13.1259 259.969 13.1259C261.142 13.1259 261.954 13.5754 262.586 14.5643V13.3057H264.662V21.5768C264.662 22.7455 264.301 23.7344 263.579 24.4537C262.857 25.1729 261.864 25.6224 260.6 25.6224C259.337 25.6224 258.344 25.3527 257.622 24.8133C256.9 24.2738 256.448 23.5546 256.358 22.5657H258.434C258.524 22.9253 258.795 23.195 259.156 23.4647C259.517 23.6445 259.969 23.8243 260.51 23.8243C261.052 23.8243 261.503 23.6445 261.864 23.2849C262.225 22.9253 262.406 22.3859 262.406 21.6667V20.2282C261.774 21.2171 260.871 21.7566 259.788 21.7566C258.705 21.7566 257.892 21.2171 257.17 20.408Z" fill="black"/>
<path d="M266.919 13.2158H268.995V21.4869H266.919V13.2158ZM269.266 11.148C269.266 11.5076 269.176 11.7773 268.905 12.047C268.634 12.3167 268.363 12.4066 268.002 12.4066C267.641 12.4066 267.37 12.3167 267.1 12.047C266.829 11.7773 266.739 11.5076 266.739 11.148C266.739 10.7884 266.829 10.5187 267.1 10.249C267.37 9.97925 267.641 9.88934 268.002 9.88934C268.363 9.88934 268.634 9.97925 268.905 10.249C269.086 10.4288 269.266 10.7884 269.266 11.148Z" fill="black"/>
<path d="M273.328 13.2158V14.4744C273.87 13.5754 274.682 13.1259 275.946 13.1259C276.849 13.1259 277.661 13.3956 278.293 14.0249C278.925 14.6542 279.195 15.4633 279.195 16.6321V21.4868H277.119V16.9018C277.119 16.2725 276.939 15.733 276.668 15.4633C276.307 15.1037 275.856 14.9239 275.314 14.9239C274.772 14.9239 274.321 15.1037 273.96 15.4633C273.599 15.8229 273.418 16.2725 273.418 16.9018V21.4868H271.342V13.2158H273.328Z" fill="black"/>
<path d="M286.597 19.1494C287.049 18.6999 287.229 18.1604 287.229 17.3513C287.229 16.6321 287.049 16.0028 286.597 15.5532C286.146 15.1037 285.604 14.9239 285.063 14.9239C284.431 14.9239 283.98 15.1037 283.528 15.5532C283.077 16.0028 282.896 16.5422 282.896 17.3513C282.896 18.0705 283.077 18.6999 283.528 19.1494C283.98 19.5989 284.521 19.7787 285.063 19.7787C285.604 19.7787 286.146 19.509 286.597 19.1494ZM281.813 20.408C281.091 19.5989 280.73 18.6099 280.73 17.3513C280.73 16.0927 281.091 15.1037 281.813 14.2946C282.535 13.4855 283.528 13.1259 284.611 13.1259C285.785 13.1259 286.597 13.5754 287.229 14.5643V13.3057H289.305V21.5768C289.305 22.7455 288.944 23.7344 288.222 24.4537C287.5 25.1729 286.507 25.6224 285.243 25.6224C283.98 25.6224 282.987 25.3527 282.265 24.8133C281.542 24.2738 281.091 23.5546 281.001 22.5657H283.077C283.167 22.9253 283.438 23.195 283.799 23.4647C284.16 23.6445 284.611 23.8243 285.153 23.8243C285.695 23.8243 286.146 23.6445 286.507 23.2849C286.868 22.9253 287.049 22.3859 287.049 21.6667V20.2282C286.417 21.2171 285.514 21.7566 284.431 21.7566C283.528 21.5768 282.626 21.2171 281.813 20.408Z" fill="black"/>
<path d="M230.812 37.9391C229.819 36.9502 229.278 35.6916 229.278 34.1632C229.278 32.6349 229.819 31.3762 230.812 30.3873C231.805 29.3983 233.069 28.8589 234.604 28.8589C235.777 28.8589 236.77 29.1286 237.673 29.7579C238.575 30.2974 239.207 31.1065 239.568 32.1853H237.041C236.589 31.2863 235.777 30.8368 234.604 30.8368C233.701 30.8368 232.888 31.1065 232.257 31.7358C231.625 32.3651 231.354 33.1743 231.354 34.2531C231.354 35.242 231.625 36.1411 232.257 36.7704C232.888 37.3997 233.611 37.6694 234.604 37.6694C235.687 37.6694 236.499 37.2199 237.041 36.3209H239.568C239.207 37.3997 238.575 38.2088 237.673 38.7483C236.77 39.2877 235.777 39.6473 234.604 39.6473C233.069 39.4675 231.805 38.9281 230.812 37.9391Z" fill="black"/>
<path d="M244.984 37.6694C245.616 37.6694 246.068 37.4896 246.519 37.0401C246.97 36.5906 247.151 35.9613 247.151 35.2421C247.151 34.4329 246.97 33.8036 246.519 33.444C246.068 32.9945 245.616 32.8147 244.984 32.8147C244.352 32.8147 243.901 32.9945 243.45 33.444C242.998 33.8935 242.818 34.5228 242.818 35.2421C242.818 35.9613 242.998 36.6805 243.45 37.0401C243.901 37.4896 244.443 37.6694 244.984 37.6694ZM241.915 38.2988C241.103 37.4896 240.742 36.5007 240.742 35.2421C240.742 33.9834 241.193 32.9046 242.005 32.1853C242.818 31.3762 243.811 31.0166 245.075 31.0166C246.338 31.0166 247.331 31.3762 248.144 32.1853C248.956 32.9945 249.407 33.9834 249.407 35.2421C249.407 36.5007 248.956 37.5795 248.144 38.2988C247.331 39.1079 246.338 39.4675 245.075 39.4675C243.811 39.4675 242.728 39.1079 241.915 38.2988Z" fill="black"/>
<path d="M253.108 31.1065V32.3651C253.65 31.4661 254.462 31.0166 255.726 31.0166C256.629 31.0166 257.441 31.2863 258.073 31.9156C258.705 32.545 258.976 33.3541 258.976 34.5228V39.3776H256.9V34.7925C256.9 34.1632 256.719 33.6238 256.448 33.3541C256.087 32.9945 255.636 32.8147 255.094 32.8147C254.553 32.8147 254.101 32.9945 253.74 33.3541C253.379 33.7137 253.199 34.1632 253.199 34.7925V39.3776H250.942V31.1065H253.108Z" fill="black"/>
<path d="M261.593 38.2988C260.871 37.4896 260.42 36.5007 260.42 35.2421C260.42 33.9834 260.781 32.9046 261.593 32.1853C262.316 31.3762 263.308 31.0166 264.572 31.0166C265.565 31.0166 266.378 31.2863 267.1 31.7358C267.822 32.1853 268.273 32.9046 268.454 33.8036H266.197C265.926 33.0844 265.385 32.8147 264.572 32.8147C263.94 32.8147 263.489 32.9945 263.128 33.444C262.767 33.8935 262.586 34.5228 262.586 35.2421C262.586 36.0512 262.767 36.5906 263.128 37.0401C263.489 37.4896 263.94 37.6694 264.572 37.6694C265.385 37.6694 265.926 37.3098 266.197 36.5906H268.454C268.183 37.4896 267.732 38.119 267.1 38.6584C266.378 39.1978 265.565 39.3776 264.572 39.3776C263.308 39.4675 262.316 39.1079 261.593 38.2988Z" fill="black"/>
<path d="M274.863 33.2642C274.502 32.9046 274.05 32.8147 273.509 32.8147C272.967 32.8147 272.516 32.9945 272.155 33.2642C271.794 33.6238 271.613 34.0733 271.523 34.6127H275.404C275.495 33.9834 275.224 33.5339 274.863 33.2642ZM273.509 39.4675C272.335 39.4675 271.342 39.1079 270.53 38.2988C269.808 37.4896 269.356 36.5007 269.356 35.2421C269.356 33.9834 269.717 32.9046 270.53 32.1853C271.252 31.3762 272.245 31.0166 273.509 31.0166C274.682 31.0166 275.675 31.3762 276.487 32.1853C277.3 32.9046 277.661 33.8935 277.661 35.1521C277.661 35.4219 277.661 35.6916 277.571 35.9613H271.523C271.613 36.5007 271.794 36.9502 272.155 37.2199C272.516 37.5795 272.967 37.6694 273.509 37.6694C274.231 37.6694 274.772 37.3997 275.133 36.7704H277.39C277.119 37.5795 276.668 38.2089 276.036 38.6584C275.314 39.1978 274.502 39.4675 273.509 39.4675Z" fill="black"/>
<path d="M285.153 36.9502C285.604 36.5007 285.785 35.9613 285.785 35.1521C285.785 34.343 285.604 33.8036 285.153 33.3541C284.702 32.9046 284.25 32.7248 283.619 32.7248C282.987 32.7248 282.535 32.9046 282.084 33.3541C281.633 33.8036 281.452 34.343 281.452 35.1521C281.452 35.8714 281.633 36.5007 282.084 36.9502C282.535 37.3997 282.987 37.5795 283.619 37.5795C284.25 37.6694 284.702 37.3997 285.153 36.9502ZM281.452 32.3651C282.084 31.4661 282.896 30.9267 284.07 30.9267C285.243 30.9267 286.146 31.2863 286.868 32.0954C287.59 32.9046 287.951 33.8935 287.951 35.1521C287.951 36.4108 287.59 37.3997 286.868 38.2089C286.146 39.018 285.243 39.3776 284.07 39.3776C282.896 39.3776 282.084 38.8382 281.452 37.8492V43.1535H279.376V31.1065H281.452V32.3651Z" fill="black"/>
<path d="M292.826 37.5795H293.819V39.3776H292.465C291.652 39.3776 290.93 39.1978 290.479 38.8382C290.027 38.4786 289.757 37.8492 289.757 36.9502V32.9046H288.854V31.1964H289.757V29.1286H291.833V31.1964H293.728V32.9046H291.833V36.8603C291.833 37.13 291.923 37.3098 292.013 37.3997C292.284 37.4896 292.555 37.5795 292.826 37.5795Z" fill="black"/>
<path d="M294.992 33.5339C294.992 32.8147 295.263 32.1853 295.895 31.7358C296.527 31.2863 297.339 31.0166 298.332 31.0166C299.325 31.0166 300.137 31.2863 300.769 31.7358C301.401 32.1853 301.672 32.9046 301.762 33.7137H299.596C299.505 32.9945 299.144 32.6349 298.332 32.6349C297.971 32.6349 297.61 32.7248 297.429 32.9046C297.249 33.0844 297.068 33.2642 297.068 33.5339C297.068 33.8036 297.249 34.0733 297.52 34.1632C297.881 34.343 298.242 34.4329 298.693 34.5228C299.144 34.6127 299.596 34.7026 300.047 34.8824C300.498 34.9723 300.95 35.242 301.221 35.6017C301.582 35.9613 301.672 36.4108 301.672 36.9502C301.672 37.6694 301.311 38.2988 300.679 38.7483C300.047 39.1978 299.235 39.4675 298.242 39.4675C297.249 39.4675 296.436 39.1978 295.805 38.7483C295.173 38.2988 294.812 37.5795 294.812 36.7704H296.978C297.068 37.4896 297.52 37.8492 298.332 37.8492C298.693 37.8492 299.054 37.7593 299.235 37.5795C299.505 37.3997 299.596 37.2199 299.596 36.8603C299.596 36.5906 299.415 36.3209 299.144 36.231C298.783 36.0512 298.422 35.9613 297.971 35.8714C297.52 35.7815 297.068 35.6916 296.617 35.5118C296.166 35.4219 295.714 35.1521 295.443 34.7925C295.173 34.4329 294.992 34.0733 294.992 33.5339Z" fill="black"/>
<path d="M241.193 46.8396V57.1784H239.117V50.6155L236.228 57.1784H234.784L231.896 50.7054V57.1784H229.819V46.8396H232.166L235.506 54.4813L238.846 46.8396H241.193Z" fill="black"/>
<path d="M248.685 54.8409C249.137 54.3914 249.317 53.852 249.317 53.0429C249.317 52.3237 249.137 51.6943 248.685 51.2448C248.234 50.7953 247.692 50.6155 247.151 50.6155C246.519 50.6155 246.068 50.7953 245.616 51.2448C245.165 51.6943 244.984 52.2337 244.984 53.0429C244.984 53.7621 245.165 54.3914 245.616 54.8409C246.068 55.2905 246.609 55.4703 247.151 55.4703C247.783 55.5602 248.324 55.2905 248.685 54.8409ZM243.991 56.0996C243.269 55.2905 242.908 54.3015 242.908 53.0429C242.908 51.7842 243.269 50.7953 243.991 49.9862C244.713 49.177 245.706 48.8174 246.79 48.8174C247.963 48.8174 248.775 49.2669 249.407 50.2559V48.9972H251.484V57.2683H249.407V55.9198C248.775 56.9087 247.873 57.4481 246.79 57.4481C245.706 57.4481 244.713 56.9087 243.991 56.0996Z" fill="black"/>
<path d="M255.816 48.9972V50.2559C256.358 49.3568 257.17 48.9073 258.344 48.9073C259.246 48.9073 260.059 49.177 260.691 49.8064C261.323 50.4357 261.593 51.2448 261.593 52.4136V57.2683H259.517V52.6833C259.517 52.0539 259.337 51.5145 259.066 51.2448C258.705 50.8852 258.254 50.7054 257.712 50.7054C257.17 50.7054 256.719 50.8852 256.358 51.2448C255.997 51.6044 255.816 52.0539 255.816 52.6833V57.2683H253.74V48.9972H255.816Z" fill="black"/>
<path d="M269.537 48.9972H271.613V57.2683H269.537V56.0097C268.995 56.9087 268.183 57.3582 266.919 57.3582C266.016 57.3582 265.204 57.0885 264.572 56.4592C263.94 55.8299 263.67 55.0207 263.67 53.852V48.9972H265.746V53.5823C265.746 54.2116 265.926 54.751 266.197 55.1106C266.558 55.4703 267.009 55.6501 267.551 55.6501C268.093 55.6501 268.544 55.4703 268.905 55.1106C269.266 54.751 269.447 54.3015 269.447 53.5823V48.9972H269.537Z" fill="black"/>
<path d="M277.39 48.9972V50.7054H276.036V57.2683H273.96V50.7054H273.057V48.9972H273.96V48.5477C273.96 47.5588 274.231 46.8395 274.772 46.39C275.314 45.9405 276.126 45.6708 277.3 45.6708V47.4689C276.848 47.4689 276.578 47.5588 276.397 47.7386C276.217 47.9184 276.126 48.1881 276.126 48.5477V48.9972H277.39Z" fill="black"/>
<path d="M284.16 54.8409C284.611 54.3914 284.792 53.852 284.792 53.0429C284.792 52.3237 284.611 51.6943 284.16 51.2448C283.709 50.7953 283.167 50.6155 282.626 50.6155C281.994 50.6155 281.542 50.7953 281.091 51.2448C280.64 51.6943 280.459 52.2337 280.459 53.0429C280.459 53.7621 280.64 54.3914 281.091 54.8409C281.542 55.2905 282.084 55.4703 282.626 55.4703C283.167 55.5602 283.709 55.2905 284.16 54.8409ZM279.376 56.0996C278.654 55.2905 278.293 54.3015 278.293 53.0429C278.293 51.7842 278.654 50.7953 279.376 49.9862C280.098 49.177 281.091 48.8174 282.174 48.8174C283.348 48.8174 284.16 49.2669 284.792 50.2559V48.9972H286.868V57.2683H284.792V55.9198C284.16 56.9087 283.257 57.4481 282.174 57.4481C281.091 57.4481 280.098 56.9087 279.376 56.0996Z" fill="black"/>
<path d="M289.666 56.1895C288.944 55.3804 288.493 54.3914 288.493 53.1328C288.493 51.8741 288.854 50.7953 289.666 50.0761C290.389 49.2669 291.381 48.9073 292.645 48.9073C293.638 48.9073 294.451 49.177 295.173 49.6266C295.895 50.0761 296.346 50.7953 296.527 51.6943H294.27C293.999 50.9751 293.458 50.7054 292.645 50.7054C292.013 50.7054 291.562 50.8852 291.201 51.3347C290.84 51.7842 290.659 52.4136 290.659 53.1328C290.659 53.9419 290.84 54.4813 291.201 54.9308C291.562 55.3804 292.013 55.5602 292.645 55.5602C293.458 55.5602 293.999 55.2006 294.27 54.4813H296.527C296.256 55.3804 295.805 56.0097 295.173 56.5491C294.451 57.0885 293.638 57.2683 292.645 57.2683C291.381 57.3582 290.479 56.9087 289.666 56.1895Z" fill="black"/>
<path d="M301.311 55.4703H302.304V57.2683H300.95C300.137 57.2683 299.415 57.0885 298.964 56.7289C298.513 56.3693 298.242 55.74 298.242 54.8409V50.7953H297.339V49.0871H298.242V47.0194H300.318V49.0871H302.213V50.7953H300.318V54.8409C300.318 55.1106 300.408 55.2905 300.498 55.3804C300.769 55.3804 300.95 55.4703 301.311 55.4703Z" fill="black"/>
<path d="M309.706 48.9972H311.782V57.2683H309.706V56.0097C309.164 56.9087 308.352 57.3582 307.088 57.3582C306.185 57.3582 305.373 57.0885 304.741 56.4592C304.109 55.8299 303.838 55.0207 303.838 53.852V48.9972H305.914V53.5823C305.914 54.2116 306.095 54.751 306.366 55.1106C306.727 55.4703 307.178 55.6501 307.72 55.6501C308.261 55.6501 308.713 55.4703 309.074 55.1106C309.435 54.751 309.615 54.3015 309.615 53.5823V48.9972H309.706Z" fill="black"/>
<path d="M316.115 48.9972V50.4357C316.656 49.3568 317.469 48.8174 318.552 48.8174V50.9751H318.01C317.378 50.9751 316.927 51.1549 316.566 51.4246C316.205 51.6943 316.115 52.2338 316.115 53.0429V57.1784H314.038V48.9073H316.115V48.9972Z" fill="black"/>
<path d="M320.086 48.9972H322.162V57.2683H320.086V48.9972ZM322.433 46.8396C322.433 47.1992 322.343 47.4689 322.072 47.7386C321.801 48.0083 321.531 48.0982 321.17 48.0982C320.808 48.0982 320.538 48.0083 320.267 47.7386C319.996 47.4689 319.906 47.1992 319.906 46.8396C319.906 46.4799 319.996 46.2102 320.267 45.9405C320.538 45.6708 320.808 45.5809 321.17 45.5809C321.531 45.5809 321.801 45.6708 322.072 45.9405C322.253 46.2102 322.433 46.4799 322.433 46.8396Z" fill="black"/>
<path d="M326.495 48.9972V50.2559C327.037 49.3568 327.849 48.9073 329.113 48.9073C330.016 48.9073 330.828 49.177 331.46 49.8064C332.092 50.4357 332.363 51.2448 332.363 52.4136V57.2683H330.286V52.6833C330.286 52.0539 330.106 51.5145 329.835 51.2448C329.474 50.8852 329.023 50.7054 328.481 50.7054C327.94 50.7054 327.488 50.8852 327.127 51.2448C326.766 51.6044 326.586 52.0539 326.586 52.6833V57.2683H324.509V48.9972H326.495Z" fill="black"/>
<path d="M339.764 54.8409C340.216 54.3914 340.396 53.852 340.396 53.0429C340.396 52.3237 340.216 51.6943 339.764 51.2448C339.313 50.7953 338.772 50.6155 338.23 50.6155C337.598 50.6155 337.147 50.7953 336.695 51.2448C336.244 51.6943 336.064 52.2338 336.064 53.0429C336.064 53.7621 336.244 54.3914 336.695 54.8409C337.147 55.2905 337.688 55.4703 338.23 55.4703C338.772 55.4703 339.313 55.2905 339.764 54.8409ZM334.98 56.0996C334.258 55.2905 333.897 54.3015 333.897 53.0429C333.897 51.7842 334.258 50.7953 334.98 49.9862C335.703 49.177 336.695 48.8174 337.779 48.8174C338.952 48.8174 339.765 49.2669 340.396 50.2559V48.9972H342.473V57.2683C342.473 58.4371 342.111 59.426 341.389 60.1452C340.667 60.8645 339.674 61.314 338.41 61.314C337.147 61.314 336.154 61.0443 335.432 60.5048C334.71 59.9654 334.258 59.2462 334.168 58.2573H336.244C336.334 58.6169 336.605 58.8866 336.966 59.1563C337.327 59.3361 337.779 59.5159 338.32 59.5159C338.862 59.5159 339.313 59.3361 339.674 58.9765C340.035 58.6169 340.216 58.0775 340.216 57.3582V55.9198C339.584 56.9087 338.681 57.4481 337.598 57.4481C336.515 57.4481 335.793 56.9087 334.98 56.0996Z" fill="black"/>
<path d="M57.5903 5.66391H3.52041V59.5159H57.5903V5.66391Z" fill="#FEEC60"/>
<path d="M24.1013 5.66391H3.52041V59.5159H57.5903V39.018H24.1013V5.66391Z" fill="black"/>
<path d="M200.573 5.66391H146.503V59.5159H200.573V5.66391Z" fill="#84CFC5"/>
<path d="M146.503 5.66391V59.5159H200.663L146.503 5.66391Z" fill="black"/>
<path d="M200.663 5.66391V59.5159H146.503L200.663 5.66391Z" fill="black"/>
</svg>
